<svg width="56" height="64" viewBox="0 0 56 64" fill="none" xmlns="http://www.w3.org/2000/svg">
<path fill-rule="evenodd" clip-rule="evenodd" d="M8.47481 27.0408C10.9848 29.2153 13.609 29.8759 17.3731 29.1596C19.3499 28.7831 20.9333 28.1977 22.3167 27.4451C25.0752 25.9446 27.0394 23.7801 29.7465 21.2895L33.3405 18.4357C37.7937 15.3943 43.7496 13.4148 48.2616 17.8142C50.383 19.8826 51.5464 23.1724 51.7861 27.2886C51.185 34.1554 49.9636 38.5045 47.545 43.5679C46.1998 46.3839 36.5486 65.337 31.0442 63.925C28.1011 63.1699 28.7855 54.3306 25.8334 51.9239C28.9016 53.159 28.1744 59.1542 31.4814 59.3377C35.6123 59.5668 39.0798 51.5988 40.3465 48.5077C41.2696 46.2556 42.0335 43.9625 42.6913 41.7942C44.6555 35.3176 46.064 27.4432 41.8179 24.1562C37.8966 21.1209 33.8918 24.2323 30.7795 26.8386C27.4406 29.6343 22.8036 33.6588 18.3607 34.2859C14.2308 34.8689 10.6234 33.4977 7.51758 31.0691C7.57234 29.6521 7.83207 28.2277 8.47481 27.0408Z" fill="#2BE21B"/>
<path fill-rule="evenodd" clip-rule="evenodd" d="M25.834 51.9239C22.4397 52.751 23.4035 59.3231 19.6024 59.3829C16.4037 59.4333 13.1198 54.0196 10.6133 47.7398C8.48323 42.4038 3.97305 30.6213 8.35806 25.4464C10.7911 22.575 13.638 22.3654 16.4628 23.1408C18.3056 23.6465 20.4088 24.7292 22.6766 26.0757C22.8086 25.9925 22.9391 25.9071 23.0683 25.8201C24.3013 24.9889 25.414 23.9929 26.4971 22.9775C22.3984 20.3914 18.6082 17.8602 15.5841 16.6007C11.063 14.7178 6.16008 14.2015 2.64324 18.3052C-3.93431 25.9806 3.40822 41.4979 6.92487 48.7449C10.7472 56.6216 15.658 64.2525 19.9191 63.9544C23.7274 63.688 22.2889 54.1432 25.834 51.9239ZM28.7029 29.8546C37.3715 35.3477 47.0903 40.8683 53.8326 33.1053C58.6757 27.5283 54.8346 18.1202 47.9133 17.0413C53.4249 18.9648 55.6864 27.9861 49.3853 30.2398C44.3876 32.0269 38.4186 29.8177 32.6104 26.6309C32.5049 26.7144 32.4001 26.7983 32.2962 26.8821C32.002 27.12 31.711 27.3615 31.4213 27.6044C30.5191 28.3598 29.6207 29.1183 28.7029 29.8546Z" fill="#0DBBB4"/>
<path fill-rule="evenodd" clip-rule="evenodd" d="M14.1074 41.217C21.4036 44.1285 30.6586 44.9064 38.631 40.477C31.8268 49.2023 21.5466 52.1535 14.1074 41.217Z" fill="#0DBBB4"/>
<path fill-rule="evenodd" clip-rule="evenodd" d="M13.6575 43.7014C12.3854 41.582 11.6547 38.632 15.5603 39.394C13.4591 40.3641 13.3286 41.5757 13.6575 43.7014Z" fill="#0DBBB4"/>
<path fill-rule="evenodd" clip-rule="evenodd" d="M11.6096 0.0782686C15.2874 0.0782686 18.2689 3.05981 18.2689 6.73762C18.2689 10.4154 15.2874 13.397 11.6096 13.397C7.93174 13.397 4.9502 10.4154 4.9502 6.73762C4.9502 3.05981 7.93174 0.0782686 11.6096 0.0782686Z" fill="#0DBBB4"/>
<path fill-rule="evenodd" clip-rule="evenodd" d="M39.4089 0.84467C42.8967 0.84467 45.7246 3.67257 45.7246 7.16043C45.7246 10.6486 42.8967 13.4762 39.4089 13.4762C35.9207 13.4762 33.0928 10.6486 33.0928 7.16043C33.0928 3.67257 35.9207 0.84467 39.4089 0.84467Z" fill="#2BE21B"/>
<path fill-rule="evenodd" clip-rule="evenodd" d="M26.1833 9.45975C28.7374 9.45975 30.808 11.5301 30.808 14.0841C30.808 16.6382 28.7374 18.7089 26.1833 18.7089C23.6292 18.7089 21.5586 16.6382 21.5586 14.0841C21.5586 11.5301 23.6292 9.45975 26.1833 9.45975Z" fill="#2BE21B"/>
</svg>
