<svg width="24" height="28" viewBox="0 0 24 28" fill="none" xmlns="http://www.w3.org/2000/svg">
<path d="M21.6 19.4564V11.1179H24V19.4564C24 20.1936 23.7471 20.9005 23.2971 21.4218C22.847 21.943 22.2365 22.2359 21.6 22.2359H7.2C6.56348 22.2359 5.95303 21.943 5.50294 21.4218C5.05286 20.9005 4.8 20.1936 4.8 19.4564V2.77949C4.8 1.23687 5.868 0 7.2 0H16.8V2.77949H7.2V19.4564H21.6ZM10.692 7.05989L14.4 11.3542L22.308 2.19579L24 4.16923L14.4 15.2872L9 9.03333L10.692 7.05989ZM16.8 25.0154V27.7949H2.4C1.76348 27.7949 1.15303 27.502 0.702944 26.9808C0.252856 26.4595 0 25.7525 0 25.0154V6.94871H2.4V25.0154H16.8Z" fill="url(#paint0_linear_98_5695)"/>
<defs>
<linearGradient id="paint0_linear_98_5695" x1="12" y1="0" x2="12" y2="27.7949" gradientUnits="userSpaceOnUse">
<stop stop-color="#0DBBB4"/>
<stop offset="1" stop-color="#30B832" stop-opacity="0.44"/>
</linearGradient>
</defs>
</svg>
