<svg width="590" height="185" viewBox="0 0 590 185" fill="none" xmlns="http://www.w3.org/2000/svg">
<path d="M186.572 40.1077C188.122 40.3355 189.489 40.495 190.674 40.5862C191.904 40.6773 192.93 40.7685 193.75 40.8596C194.707 40.9508 195.527 40.9963 196.211 40.9963H198.877C200.654 40.9963 203.594 40.928 207.695 40.7913C206.693 41.1103 205.85 41.566 205.166 42.1584C204.528 42.7509 204.004 43.3661 203.594 44.0042C203.092 44.7333 202.728 45.4853 202.5 46.26C202.227 47.217 201.976 48.4931 201.748 50.0881C201.52 51.5009 201.292 53.3466 201.064 55.6252C200.882 57.9039 200.7 60.7522 200.518 64.1702C202.477 61.9371 204.186 59.9547 205.645 58.2229C207.148 56.4911 208.447 54.9644 209.541 53.6428C210.635 52.3212 211.546 51.1819 212.275 50.2249C213.05 49.2678 213.688 48.4475 214.189 47.7639C215.374 46.2144 216.058 45.1663 216.24 44.6194C216.286 44.3004 216.263 43.913 216.172 43.4573C216.081 43.0927 215.944 42.6597 215.762 42.1584C215.579 41.6116 215.306 41.0191 214.941 40.3811C216.764 40.4722 218.314 40.5406 219.59 40.5862C220.911 40.6318 222.005 40.6773 222.871 40.7229C223.874 40.7685 224.694 40.7913 225.332 40.7913H228.203C229.251 40.7913 230.618 40.7913 232.305 40.7913C233.991 40.7457 236.11 40.7001 238.662 40.6545C236.976 41.0647 235.381 41.6116 233.877 42.2952C232.373 42.9788 231.029 43.6396 229.844 44.2776C228.477 45.0523 227.201 45.8499 226.016 46.6702C224.831 47.5816 223.509 48.6526 222.051 49.8831C220.82 50.9312 219.385 52.2301 217.744 53.7795C216.104 55.2834 214.326 57.038 212.412 59.0432C214.463 63.0536 216.24 66.3577 217.744 68.9553C219.294 71.5074 220.592 73.5582 221.641 75.1077C222.826 76.9306 223.828 78.3206 224.648 79.2776C225.469 80.1435 226.426 81.0321 227.52 81.9436C228.431 82.7183 229.57 83.5842 230.938 84.5413C232.305 85.4527 233.877 86.3414 235.654 87.2073L216.172 88.1643C216.445 87.7997 216.605 87.3668 216.65 86.8655C216.742 86.3186 216.787 85.8173 216.787 85.3616C216.787 84.8603 216.742 84.3134 216.65 83.7209C216.468 82.9918 215.99 81.8069 215.215 80.1663C214.577 78.7535 213.597 76.7711 212.275 74.219C210.954 71.6213 209.131 68.2034 206.807 63.9651L200.996 70.0491C200.768 71.5074 200.654 72.829 200.654 74.0139C200.654 75.1988 200.7 76.1786 200.791 76.9534C200.928 77.9104 201.11 78.7307 201.338 79.4143C201.611 80.0979 201.999 80.8726 202.5 81.7385C202.91 82.5133 203.457 83.4247 204.141 84.4729C204.824 85.5211 205.69 86.6832 206.738 87.9592C205.69 87.6858 204.642 87.5035 203.594 87.4124C202.546 87.2756 201.589 87.1845 200.723 87.1389C199.72 87.0933 198.763 87.1161 197.852 87.2073C196.895 87.2984 195.778 87.4351 194.502 87.6174C193.408 87.7997 192.064 88.0276 190.469 88.301C188.874 88.5745 187.051 88.9163 185 89.3264C186.003 88.734 186.8 88.0959 187.393 87.4124C187.985 86.7288 188.464 86.068 188.828 85.4299C189.238 84.7008 189.512 83.9944 189.648 83.3108C189.74 82.7183 189.808 81.4423 189.854 79.4827C189.945 77.523 189.99 75.2444 189.99 72.6467C190.036 70.0035 190.036 67.2236 189.99 64.3069C189.945 61.3902 189.899 58.6558 189.854 56.1038C189.808 53.5517 189.74 51.387 189.648 49.6096C189.603 47.7867 189.557 46.6702 189.512 46.26C189.375 45.622 189.193 44.9384 188.965 44.2092C188.737 43.5712 188.418 42.9104 188.008 42.2268C187.643 41.4976 187.165 40.7913 186.572 40.1077ZM230.596 41.8167C232.145 41.9989 233.444 42.1357 234.492 42.2268C235.586 42.2724 236.475 42.3407 237.158 42.4319C237.979 42.523 238.617 42.5686 239.072 42.5686C239.574 42.6142 240.326 42.5914 241.328 42.5002C242.194 42.4091 243.356 42.2952 244.814 42.1584C246.318 42.0217 248.232 41.8167 250.557 41.5432C249.508 42.4547 248.665 43.3433 248.027 44.2092C247.435 45.0295 246.979 45.7587 246.66 46.3967C246.25 47.1715 245.999 47.9006 245.908 48.5842C245.726 49.678 245.566 51.1819 245.43 53.0959C245.339 54.9644 245.247 57.0152 245.156 59.2483C245.065 61.4814 245.02 63.7828 245.02 66.1526C245.02 68.5224 245.042 70.7782 245.088 72.9202C245.179 75.0165 245.316 76.885 245.498 78.5256C245.726 80.1663 245.999 81.3512 246.318 82.0803C246.774 82.9006 247.253 83.7209 247.754 84.5413C248.21 85.2249 248.757 85.9312 249.395 86.6604C250.033 87.3896 250.762 87.982 251.582 88.4377C248.893 88.301 246.751 88.2327 245.156 88.2327H242.695C241.966 88.2327 241.032 88.2782 239.893 88.3694C238.936 88.4605 237.728 88.5517 236.27 88.6428C234.811 88.734 233.057 88.8707 231.006 89.053C232.054 87.9137 232.874 86.8199 233.467 85.7717C234.059 84.7236 234.538 83.8121 234.902 83.0374C235.312 82.1259 235.586 81.26 235.723 80.4397C235.905 79.2548 236.042 77.7965 236.133 76.0647C236.27 74.2874 236.361 72.3961 236.406 70.3909C236.452 68.3401 236.452 66.2665 236.406 64.1702C236.406 62.0282 236.361 59.9775 236.27 58.0178C236.178 56.0582 236.042 54.2808 235.859 52.6858C235.723 51.0907 235.54 49.8147 235.312 48.8577C235.176 48.2652 234.902 47.6044 234.492 46.8752C234.128 46.2372 233.626 45.5081 232.988 44.6877C232.396 43.8219 231.598 42.8648 230.596 41.8167ZM251.582 40.4495C253.633 40.814 255.319 41.0647 256.641 41.2014C257.962 41.3381 259.033 41.4521 259.854 41.5432C260.811 41.6344 261.562 41.6571 262.109 41.6116H264.16C264.889 41.6116 265.801 41.6116 266.895 41.6116C268.034 41.566 269.447 41.5432 271.133 41.5432C272.09 43.7763 272.956 45.8271 273.73 47.6956C274.551 49.564 275.234 51.1591 275.781 52.4807C276.419 54.0758 277.012 55.5113 277.559 56.7874C278.197 58.3824 278.88 60.137 279.609 62.051C280.339 63.9651 280.999 65.7652 281.592 67.4514C282.23 69.1376 282.754 70.5276 283.164 71.6213C283.574 72.7151 283.779 73.2164 283.779 73.1252C283.779 73.0797 283.802 72.6239 283.848 71.7581C283.893 70.8466 283.939 69.7301 283.984 68.4084C284.03 67.0413 284.076 65.5601 284.121 63.9651C284.212 62.3245 284.258 60.7522 284.258 59.2483C284.303 57.6988 284.326 56.2861 284.326 55.01C284.326 53.734 284.281 52.7769 284.189 52.1389C284.053 51.3642 283.779 50.4755 283.369 49.4729C283.005 48.607 282.503 47.5816 281.865 46.3967C281.227 45.1663 280.339 43.7763 279.199 42.2268C281.068 42.2724 282.594 42.2952 283.779 42.2952C284.964 42.2952 285.921 42.2952 286.65 42.2952C287.471 42.2952 288.109 42.2724 288.564 42.2268C289.157 42.2268 289.886 42.1812 290.752 42.0901C291.527 41.9989 292.484 41.9306 293.623 41.885C294.808 41.7939 296.266 41.6799 297.998 41.5432C296.995 42.4547 296.198 43.3206 295.605 44.1409C295.013 44.9612 294.535 45.6903 294.17 46.3284C293.76 47.0575 293.486 47.7411 293.35 48.3792C293.167 49.1995 293.008 50.5439 292.871 52.4124C292.78 54.2353 292.666 56.2861 292.529 58.5647C292.438 60.8433 292.347 63.2131 292.256 65.6741C292.165 68.135 292.074 70.3909 291.982 72.4417C291.982 73.9911 291.937 75.6545 291.846 77.4319C291.755 78.9358 291.663 80.6448 291.572 82.5588C291.481 84.4273 291.367 86.3186 291.23 88.2327L285.146 88.3694C283.369 85.2249 281.865 82.5361 280.635 80.303C279.45 78.0243 278.47 76.1558 277.695 74.6975C276.829 73.0113 276.1 71.5986 275.508 70.4592C275.007 69.3655 274.346 68.1122 273.525 66.6995C272.842 65.5146 271.976 64.0562 270.928 62.3245C269.925 60.5927 268.717 58.6103 267.305 56.3772C267.168 59.5217 267.1 62.2105 267.1 64.4436C267.145 66.6311 267.214 68.454 267.305 69.9124C267.441 71.5986 267.601 73.0113 267.783 74.1506C268.011 75.2444 268.33 76.4749 268.74 77.842C269.105 79.0269 269.538 80.4169 270.039 82.012C270.586 83.607 271.247 85.4071 272.021 87.4124C269.333 87.2756 267.327 87.2073 266.006 87.2073H263.955C263.317 87.2073 262.451 87.2756 261.357 87.4124C260.446 87.5035 259.193 87.6402 257.598 87.8225C256.048 88.0048 254.111 88.2555 251.787 88.5745C252.881 87.2528 253.747 86.0452 254.385 84.9514C255.068 83.8121 255.592 82.8551 255.957 82.0803C256.413 81.1689 256.732 80.3713 256.914 79.6877C257.051 78.9586 257.142 77.7053 257.188 75.928C257.233 74.1051 257.233 72.0543 257.188 69.7756C257.188 67.4514 257.142 65.0133 257.051 62.4612C257.005 59.9091 256.937 57.5393 256.846 55.3518C256.755 53.1643 256.641 51.2958 256.504 49.7463C256.413 48.1969 256.344 47.2398 256.299 46.8752C256.162 46.2828 255.889 45.6448 255.479 44.9612C255.114 44.3687 254.635 43.7079 254.043 42.9788C253.451 42.204 252.63 41.3609 251.582 40.4495ZM295.537 40.176C297.132 40.4039 298.522 40.5862 299.707 40.7229C300.892 40.8596 301.872 40.9736 302.646 41.0647C303.558 41.1558 304.333 41.2242 304.971 41.2698C305.7 41.3609 306.589 41.3153 307.637 41.1331C308.73 40.9508 309.893 40.7685 311.123 40.5862C312.354 40.3583 313.63 40.176 314.951 40.0393C316.273 39.9026 317.549 39.9026 318.779 40.0393C319.6 40.1305 320.648 40.3127 321.924 40.5862C323.2 40.8596 324.544 41.2926 325.957 41.885C327.415 42.4775 328.874 43.2522 330.332 44.2092C331.79 45.1663 333.112 46.3739 334.297 47.8323C335.482 49.2906 336.462 51.0224 337.236 53.0276C338.011 55.0328 338.444 57.3798 338.535 60.0686C338.672 64.079 338.307 67.7249 337.441 71.0061C336.576 74.2874 335.231 77.0901 333.408 79.4143C331.631 81.7385 329.375 83.5614 326.641 84.8831C323.906 86.2047 320.716 86.9338 317.07 87.0706C314.29 87.2984 311.556 87.5035 308.867 87.6858C307.728 87.7769 306.52 87.8453 305.244 87.8909C304.014 87.9364 302.783 87.982 301.553 88.0276C300.322 88.0276 299.137 88.0048 297.998 87.9592C296.859 87.9137 295.811 87.8453 294.854 87.7542C295.902 87.2528 296.745 86.7515 297.383 86.2502C298.066 85.7489 298.59 85.316 298.955 84.9514C299.365 84.4957 299.661 84.0855 299.844 83.7209C299.935 83.2196 300.072 82.2398 300.254 80.7815C300.391 79.551 300.573 77.7965 300.801 75.5178C301.029 73.2392 301.302 70.1402 301.621 66.2209L302.031 61.3674C302.259 58.3596 302.35 55.8987 302.305 53.9846C302.305 52.0706 302.259 50.5667 302.168 49.4729C302.031 48.1969 301.849 47.2626 301.621 46.6702C301.439 46.1689 301.097 45.5764 300.596 44.8928C300.14 44.3459 299.502 43.6851 298.682 42.9104C297.907 42.0901 296.859 41.1786 295.537 40.176ZM309.961 65.3323C310.052 69.3883 310.257 72.51 310.576 74.6975C310.941 76.8394 311.328 78.4345 311.738 79.4827C312.24 80.6676 312.786 81.3739 313.379 81.6018C314.245 81.6018 315.225 81.2372 316.318 80.5081C317.412 79.7333 318.483 78.5712 319.531 77.0217C320.625 75.4722 321.605 73.5354 322.471 71.2112C323.382 68.887 324.043 66.1754 324.453 63.0764C324.863 59.9775 324.749 57.2431 324.111 54.8733C323.473 52.5035 322.63 50.5211 321.582 48.926C320.534 47.2854 319.463 46.0549 318.369 45.2346C317.275 44.3687 316.455 43.9358 315.908 43.9358C315.27 43.9358 314.701 44.1181 314.199 44.4827C313.698 44.8017 312.992 45.5536 312.08 46.7385C311.624 47.3765 311.214 48.288 310.85 49.4729C310.531 50.5211 310.257 51.9111 310.029 53.6428C309.801 55.3746 309.733 57.6077 309.824 60.342L309.961 65.3323ZM338.193 39.0139C339.652 39.2418 340.973 39.4469 342.158 39.6292C343.343 39.7659 344.368 39.8798 345.234 39.9709C346.237 40.1077 347.126 40.2216 347.9 40.3127C348.857 40.4495 350.293 40.29 352.207 39.8342C354.121 39.3329 356.217 38.8772 358.496 38.467C360.82 38.0113 363.19 37.7607 365.605 37.7151C368.021 37.6239 370.231 38.0569 372.236 39.0139C374.242 39.9709 375.882 40.928 377.158 41.885C378.434 42.842 379.437 43.8674 380.166 44.9612C380.941 46.0094 381.488 47.1259 381.807 48.3108C382.126 49.4957 382.308 50.7945 382.354 52.2073C382.308 54.3036 381.807 56.3316 380.85 58.2913C380.439 59.1116 379.893 59.9775 379.209 60.8889C378.571 61.7548 377.773 62.5979 376.816 63.4182C375.859 64.2385 374.72 65.0133 373.398 65.7424C372.122 66.4716 370.618 67.1096 368.887 67.6565C370.573 68.1578 371.963 68.7502 373.057 69.4338C374.196 70.1174 375.107 70.7555 375.791 71.3479C376.611 72.0771 377.227 72.7834 377.637 73.467C378.138 74.4241 378.48 75.2444 378.662 75.928C378.844 76.6116 378.958 77.2724 379.004 77.9104C379.095 78.5028 379.209 79.1181 379.346 79.7561C379.482 80.3941 379.779 81.1233 380.234 81.9436C380.599 82.5816 381.032 83.2424 381.533 83.926C381.989 84.5185 382.513 85.1565 383.105 85.8401C383.743 86.5237 384.518 87.1845 385.43 87.8225C384.154 87.8681 382.969 87.8909 381.875 87.8909C380.827 87.8909 379.915 87.8909 379.141 87.8909C378.229 87.8909 377.363 87.8681 376.543 87.8225C375.723 87.7769 374.697 87.7542 373.467 87.7542C372.419 87.7542 371.074 87.7542 369.434 87.7542C367.839 87.7542 365.902 87.7769 363.623 87.8225C364.626 87.0478 365.446 86.273 366.084 85.4983C366.722 84.7236 367.223 84.0172 367.588 83.3792C367.998 82.65 368.294 81.9436 368.477 81.26C368.704 80.0295 368.727 78.7535 368.545 77.4319C368.408 76.2926 368.044 75.0393 367.451 73.6721C366.859 72.2594 365.902 70.8466 364.58 69.4338C363.258 69.6617 362.142 69.844 361.23 69.9807C360.365 70.0719 359.613 70.163 358.975 70.2542C358.245 70.3453 357.653 70.4137 357.197 70.4592C356.787 70.5048 356.331 70.5504 355.83 70.5959C355.42 70.6415 354.964 70.7099 354.463 70.801C354.007 70.8466 353.574 70.915 353.164 71.0061C353.073 72.9657 353.073 74.6747 353.164 76.1331C353.255 77.5458 353.369 78.7307 353.506 79.6877C353.688 80.8271 353.893 81.8069 354.121 82.6272C354.349 83.4475 354.668 84.245 355.078 85.0198C355.397 85.6578 355.807 86.3414 356.309 87.0706C356.81 87.7542 357.38 88.3238 358.018 88.7795C356.833 88.7795 355.693 88.7795 354.6 88.7795C353.551 88.7795 352.594 88.7568 351.729 88.7112C350.726 88.7112 349.769 88.6884 348.857 88.6428C347.946 88.5972 346.921 88.5745 345.781 88.5745C344.824 88.5745 343.685 88.5745 342.363 88.5745C341.087 88.5745 339.697 88.5972 338.193 88.6428C339.378 87.4124 340.312 86.3642 340.996 85.4983C341.68 84.6324 342.204 83.9032 342.568 83.3108C342.979 82.6728 343.229 82.1259 343.32 81.6702C343.411 80.941 343.48 79.6422 343.525 77.7737C343.617 75.8596 343.685 73.6721 343.73 71.2112C343.776 68.7502 343.799 66.1754 343.799 63.4866C343.799 60.7978 343.776 58.2913 343.73 55.967C343.685 53.5972 343.639 51.5693 343.594 49.8831C343.548 48.1969 343.503 47.1259 343.457 46.6702C343.32 45.8499 343.024 45.0295 342.568 44.2092C342.204 43.4801 341.68 42.6597 340.996 41.7483C340.312 40.8368 339.378 39.9254 338.193 39.0139ZM364.033 63.0764C364.489 62.803 364.876 62.5295 365.195 62.2561C365.514 61.9827 365.788 61.5497 366.016 60.9573C366.243 60.3193 366.426 59.4306 366.562 58.2913C366.745 57.1519 366.95 55.6025 367.178 53.6428C367.36 51.6832 367.223 50.0653 366.768 48.7893C366.357 47.5133 365.788 46.5107 365.059 45.7815C364.375 45.0068 363.6 44.4827 362.734 44.2092C361.914 43.8902 361.185 43.7307 360.547 43.7307C359.271 43.7307 358.018 44.1181 356.787 44.8928C355.557 45.6676 354.622 46.7157 353.984 48.0374C353.757 48.6298 353.551 49.6096 353.369 50.9768C353.232 52.1617 353.141 53.8023 353.096 55.8987C353.05 57.995 353.118 60.7522 353.301 64.1702C355.033 64.4436 356.559 64.5575 357.881 64.512C359.202 64.4208 360.319 64.2613 361.23 64.0334C362.324 63.8056 363.258 63.4866 364.033 63.0764ZM381.26 42.2268C384.45 42.318 387.093 42.3863 389.189 42.4319C391.331 42.4319 393.063 42.4319 394.385 42.4319H398.008H418.379C418.47 43.3433 418.538 44.232 418.584 45.0979C418.675 45.9182 418.721 46.6474 418.721 47.2854C418.721 48.0601 418.698 48.7665 418.652 49.4045C418.607 50.0426 418.538 50.7262 418.447 51.4553C418.356 52.0933 418.265 52.7769 418.174 53.5061C418.083 54.2353 417.923 54.9872 417.695 55.762C417.057 53.301 416.191 51.4325 415.098 50.1565C414.049 48.8805 412.979 47.9462 411.885 47.3538C410.609 46.6702 409.264 46.3056 407.852 46.26C405.983 46.3512 404.525 46.5107 403.477 46.7385C402.428 46.9664 401.608 47.2854 401.016 47.6956C400.423 48.1057 399.967 48.5842 399.648 49.1311C399.375 49.6324 399.079 50.2021 398.76 50.8401C398.486 51.387 398.236 52.2301 398.008 53.3694C397.78 54.3264 397.552 55.6252 397.324 57.2659C397.142 58.9065 396.937 61.0256 396.709 63.6233C397.939 63.2587 398.919 62.9169 399.648 62.5979C400.423 62.2789 401.038 62.0055 401.494 61.7776C401.995 61.5042 402.36 61.2535 402.588 61.0256C402.77 60.7522 403.044 60.2509 403.408 59.5217C403.682 58.8837 404.046 58.0178 404.502 56.9241C405.003 55.8303 405.596 54.3264 406.279 52.4124C406.37 54.5087 406.416 56.2633 406.416 57.676C406.416 59.0432 406.439 60.1597 406.484 61.0256C406.484 62.0282 406.507 62.8258 406.553 63.4182V66.0159C406.553 66.9729 406.553 68.2717 406.553 69.9124C406.598 71.5074 406.667 73.5354 406.758 75.9963C406.211 74.3101 405.71 72.9885 405.254 72.0315C404.844 71.0289 404.479 70.2769 404.16 69.7756C403.796 69.1832 403.477 68.773 403.203 68.5452C402.884 68.454 402.451 68.3629 401.904 68.2717C401.403 68.2262 400.765 68.2034 399.99 68.2034C399.261 68.2034 398.327 68.3173 397.188 68.5452C397.051 71.0517 397.028 73.0797 397.119 74.6292C397.256 76.1331 397.438 77.2952 397.666 78.1155C397.894 79.0725 398.167 79.7561 398.486 80.1663C398.896 80.5764 399.717 80.9182 400.947 81.1917C402.178 81.4195 403.568 81.5107 405.117 81.4651C406.712 81.3739 408.33 81.1005 409.971 80.6448C411.611 80.189 413.07 79.4371 414.346 78.3889C415.303 77.523 416.328 76.4293 417.422 75.1077C418.333 73.9683 419.336 72.5328 420.43 70.801C421.569 69.0693 422.686 66.9729 423.779 64.512C423.597 66.5627 423.46 68.2717 423.369 69.6389C423.324 70.9605 423.255 72.0315 423.164 72.8518C423.073 73.8088 423.005 74.538 422.959 75.0393C422.959 75.5862 422.891 76.3609 422.754 77.3635C422.663 78.2294 422.503 79.4143 422.275 80.9182C422.093 82.3765 421.842 84.245 421.523 86.5237C419.382 86.5693 417.354 86.6148 415.439 86.6604C413.525 86.6604 411.839 86.6832 410.381 86.7288C408.649 86.7743 407.054 86.8199 405.596 86.8655C404.092 86.8655 402.428 86.9338 400.605 87.0706C399.01 87.1617 397.119 87.2984 394.932 87.4807C392.79 87.663 390.42 87.9137 387.822 88.2327C388.05 85.1337 388.21 82.217 388.301 79.4827C388.438 76.7027 388.529 74.2646 388.574 72.1682C388.62 69.7073 388.62 67.4286 388.574 65.3323C388.802 60.0914 388.711 55.8531 388.301 52.6174C387.891 49.3818 387.412 47.3082 386.865 46.3967C386.592 46.0777 386.204 45.6903 385.703 45.2346C385.293 44.87 384.723 44.4371 383.994 43.9358C383.265 43.4345 382.354 42.8648 381.26 42.2268ZM424.463 40.176C426.058 40.4039 427.448 40.5862 428.633 40.7229C429.818 40.8596 430.798 40.9736 431.572 41.0647C432.484 41.1558 433.258 41.2242 433.896 41.2698C434.626 41.3609 435.514 41.3153 436.562 41.1331C437.656 40.9508 438.818 40.7685 440.049 40.5862C441.279 40.3583 442.555 40.176 443.877 40.0393C445.199 39.9026 446.475 39.9026 447.705 40.0393C448.525 40.1305 449.574 40.3127 450.85 40.5862C452.126 40.8596 453.47 41.2926 454.883 41.885C456.341 42.4775 457.799 43.2522 459.258 44.2092C460.716 45.1663 462.038 46.3739 463.223 47.8323C464.408 49.2906 465.387 51.0224 466.162 53.0276C466.937 55.0328 467.37 57.3798 467.461 60.0686C467.598 64.079 467.233 67.7249 466.367 71.0061C465.501 74.2874 464.157 77.0901 462.334 79.4143C460.557 81.7385 458.301 83.5614 455.566 84.8831C452.832 86.2047 449.642 86.9338 445.996 87.0706C443.216 87.2984 440.482 87.5035 437.793 87.6858C436.654 87.7769 435.446 87.8453 434.17 87.8909C432.939 87.9364 431.709 87.982 430.479 88.0276C429.248 88.0276 428.063 88.0048 426.924 87.9592C425.785 87.9137 424.736 87.8453 423.779 87.7542C424.827 87.2528 425.671 86.7515 426.309 86.2502C426.992 85.7489 427.516 85.316 427.881 84.9514C428.291 84.4957 428.587 84.0855 428.77 83.7209C428.861 83.2196 428.997 82.2398 429.18 80.7815C429.316 79.551 429.499 77.7965 429.727 75.5178C429.954 73.2392 430.228 70.1402 430.547 66.2209L430.957 61.3674C431.185 58.3596 431.276 55.8987 431.23 53.9846C431.23 52.0706 431.185 50.5667 431.094 49.4729C430.957 48.1969 430.775 47.2626 430.547 46.6702C430.365 46.1689 430.023 45.5764 429.521 44.8928C429.066 44.3459 428.428 43.6851 427.607 42.9104C426.833 42.0901 425.785 41.1786 424.463 40.176ZM438.887 65.3323C438.978 69.3883 439.183 72.51 439.502 74.6975C439.867 76.8394 440.254 78.4345 440.664 79.4827C441.165 80.6676 441.712 81.3739 442.305 81.6018C443.171 81.6018 444.15 81.2372 445.244 80.5081C446.338 79.7333 447.409 78.5712 448.457 77.0217C449.551 75.4722 450.531 73.5354 451.396 71.2112C452.308 68.887 452.969 66.1754 453.379 63.0764C453.789 59.9775 453.675 57.2431 453.037 54.8733C452.399 52.5035 451.556 50.5211 450.508 48.926C449.46 47.2854 448.389 46.0549 447.295 45.2346C446.201 44.3687 445.381 43.9358 444.834 43.9358C444.196 43.9358 443.626 44.1181 443.125 44.4827C442.624 44.8017 441.917 45.5536 441.006 46.7385C440.55 47.3765 440.14 48.288 439.775 49.4729C439.456 50.5211 439.183 51.9111 438.955 53.6428C438.727 55.3746 438.659 57.6077 438.75 60.342L438.887 65.3323Z" fill="#0DBBB4"/>
<path d="M183.633 97.0139C186.686 97.3785 189.329 97.6519 191.562 97.8342C193.796 97.9709 195.641 98.0849 197.1 98.176C198.786 98.2672 200.199 98.29 201.338 98.2444C202.523 98.1988 204.141 98.0849 206.191 97.9026C207.923 97.7659 210.202 97.5836 213.027 97.3557C215.853 97.0823 219.385 96.7177 223.623 96.262C223.669 97.3101 223.691 98.3355 223.691 99.3381C223.737 100.295 223.783 101.138 223.828 101.867C223.874 102.733 223.896 103.531 223.896 104.26C223.896 105.035 223.851 106.015 223.76 107.199C223.669 108.202 223.509 109.478 223.281 111.028C223.099 112.531 222.803 114.332 222.393 116.428C221.755 113.967 221.139 111.985 220.547 110.481C219.954 108.931 219.408 107.701 218.906 106.789C218.359 105.741 217.812 104.944 217.266 104.397C216.673 103.987 215.967 103.645 215.146 103.371C214.417 103.143 213.483 102.961 212.344 102.824C211.25 102.688 209.951 102.711 208.447 102.893C208.219 108.908 208.06 113.785 207.969 117.522C207.878 121.259 207.809 124.175 207.764 126.272C207.718 128.778 207.695 130.578 207.695 131.672C207.741 133.222 207.992 134.748 208.447 136.252C208.812 137.528 209.404 138.85 210.225 140.217C211.045 141.584 212.23 142.792 213.779 143.84H205.439C204.665 143.84 203.708 143.886 202.568 143.977C201.611 144.068 200.381 144.159 198.877 144.25C197.419 144.341 195.71 144.501 193.75 144.729C194.434 143.544 194.98 142.473 195.391 141.516C195.801 140.559 196.12 139.739 196.348 139.055C196.621 138.235 196.826 137.505 196.963 136.867C197.008 135.956 197.122 134.11 197.305 131.33C197.35 130.191 197.396 128.778 197.441 127.092C197.533 125.406 197.624 123.401 197.715 121.076C197.852 118.752 197.965 116.086 198.057 113.078C198.193 110.025 198.33 106.584 198.467 102.756C197.646 102.528 196.872 102.551 196.143 102.824C195.413 103.052 194.775 103.349 194.229 103.713C193.59 104.169 192.975 104.716 192.383 105.354C191.79 106.128 191.13 107.131 190.4 108.362C189.762 109.41 189.033 110.8 188.213 112.531C187.393 114.218 186.458 116.314 185.41 118.821C185.182 116.177 185.023 114.013 184.932 112.326C184.84 110.595 184.772 109.25 184.727 108.293C184.681 107.154 184.658 106.311 184.658 105.764C184.658 105.263 184.613 104.602 184.521 103.781C184.43 103.098 184.316 102.209 184.18 101.115C184.043 99.9762 183.861 98.609 183.633 97.0139ZM247.48 95.3733C249.941 95.4644 252.425 95.9202 254.932 96.7405C257.484 97.5152 259.831 98.7913 261.973 100.569C264.115 102.3 265.938 104.556 267.441 107.336C268.945 110.071 269.88 113.42 270.244 117.385C270.563 120.621 270.153 123.834 269.014 127.024C267.92 130.168 266.393 133.062 264.434 135.705C262.474 138.349 260.218 140.604 257.666 142.473C255.114 144.296 252.562 145.503 250.01 146.096C248.46 146.461 246.751 146.506 244.883 146.233C243.06 145.914 241.191 145.344 239.277 144.524C237.409 143.658 235.563 142.564 233.74 141.242C231.963 139.921 230.345 138.417 228.887 136.731C227.428 134.999 226.198 133.13 225.195 131.125C224.238 129.12 223.646 127.024 223.418 124.836C223.19 123.013 223.167 121.008 223.35 118.821C223.577 116.587 224.01 114.377 224.648 112.19C225.332 109.957 226.266 107.815 227.451 105.764C228.682 103.668 230.231 101.845 232.1 100.295C233.968 98.7001 236.156 97.4696 238.662 96.6038C241.214 95.6923 244.154 95.2821 247.48 95.3733ZM235.244 123.059C234.606 127.935 235.062 131.854 236.611 134.817C238.206 137.779 240.599 139.579 243.789 140.217C245.339 140.536 246.82 140.217 248.232 139.26C249.691 138.257 251.012 136.822 252.197 134.953C253.382 133.085 254.408 130.897 255.273 128.391C256.139 125.884 256.777 123.264 257.188 120.53C257.598 117.795 257.62 115.334 257.256 113.147C256.937 110.914 256.367 109.022 255.547 107.473C254.727 105.878 253.724 104.647 252.539 103.781C251.4 102.916 250.215 102.437 248.984 102.346C246.842 102.209 244.974 102.779 243.379 104.055C241.784 105.285 240.439 106.903 239.346 108.908C238.252 110.914 237.363 113.17 236.68 115.676C236.042 118.183 235.563 120.643 235.244 123.059ZM270.381 97.0139C273.434 97.3785 276.077 97.6519 278.311 97.8342C280.544 97.9709 282.389 98.0849 283.848 98.176C285.534 98.2672 286.947 98.29 288.086 98.2444C289.271 98.1988 290.889 98.0849 292.939 97.9026C294.671 97.7659 296.95 97.5836 299.775 97.3557C302.601 97.0823 306.133 96.7177 310.371 96.262C310.417 97.3101 310.439 98.3355 310.439 99.3381C310.485 100.295 310.531 101.138 310.576 101.867C310.622 102.733 310.645 103.531 310.645 104.26C310.645 105.035 310.599 106.015 310.508 107.199C310.417 108.202 310.257 109.478 310.029 111.028C309.847 112.531 309.551 114.332 309.141 116.428C308.503 113.967 307.887 111.985 307.295 110.481C306.702 108.931 306.156 107.701 305.654 106.789C305.107 105.741 304.561 104.944 304.014 104.397C303.421 103.987 302.715 103.645 301.895 103.371C301.165 103.143 300.231 102.961 299.092 102.824C297.998 102.688 296.699 102.711 295.195 102.893C294.967 108.908 294.808 113.785 294.717 117.522C294.626 121.259 294.557 124.175 294.512 126.272C294.466 128.778 294.443 130.578 294.443 131.672C294.489 133.222 294.74 134.748 295.195 136.252C295.56 137.528 296.152 138.85 296.973 140.217C297.793 141.584 298.978 142.792 300.527 143.84H292.188C291.413 143.84 290.456 143.886 289.316 143.977C288.359 144.068 287.129 144.159 285.625 144.25C284.167 144.341 282.458 144.501 280.498 144.729C281.182 143.544 281.729 142.473 282.139 141.516C282.549 140.559 282.868 139.739 283.096 139.055C283.369 138.235 283.574 137.505 283.711 136.867C283.757 135.956 283.87 134.11 284.053 131.33C284.098 130.191 284.144 128.778 284.189 127.092C284.281 125.406 284.372 123.401 284.463 121.076C284.6 118.752 284.714 116.086 284.805 113.078C284.941 110.025 285.078 106.584 285.215 102.756C284.395 102.528 283.62 102.551 282.891 102.824C282.161 103.052 281.523 103.349 280.977 103.713C280.339 104.169 279.723 104.716 279.131 105.354C278.538 106.128 277.878 107.131 277.148 108.362C276.51 109.41 275.781 110.8 274.961 112.531C274.141 114.218 273.206 116.314 272.158 118.821C271.93 116.177 271.771 114.013 271.68 112.326C271.589 110.595 271.52 109.25 271.475 108.293C271.429 107.154 271.406 106.311 271.406 105.764C271.406 105.263 271.361 104.602 271.27 103.781C271.178 103.098 271.064 102.209 270.928 101.115C270.791 99.9762 270.609 98.609 270.381 97.0139ZM319.668 100.637C321.947 100.774 323.861 100.888 325.41 100.979C327.005 101.024 328.327 101.07 329.375 101.115C330.56 101.161 331.562 101.161 332.383 101.115C333.203 101.07 334.32 100.956 335.732 100.774C336.917 100.637 338.49 100.432 340.449 100.158C342.454 99.8394 344.938 99.4293 347.9 98.928C346.852 99.9762 346.032 100.933 345.439 101.799C344.893 102.619 344.46 103.326 344.141 103.918C343.776 104.647 343.525 105.263 343.389 105.764C343.298 106.22 343.389 107.359 343.662 109.182C343.936 111.005 344.323 113.17 344.824 115.676C345.326 118.137 345.872 120.78 346.465 123.606C347.057 126.386 347.65 129.006 348.242 131.467C348.835 133.882 349.359 135.956 349.814 137.688C350.316 139.374 350.68 140.377 350.908 140.696C351.592 141.653 352.025 142.291 352.207 142.61C352.389 142.883 352.708 143.134 353.164 143.362C353.346 143.453 353.643 143.589 354.053 143.772C354.417 143.954 354.896 144.182 355.488 144.455C356.126 144.729 356.924 145.048 357.881 145.412C356.104 145.503 354.577 145.572 353.301 145.617C352.025 145.617 350.977 145.64 350.156 145.686C349.199 145.731 348.379 145.777 347.695 145.823C347.012 145.823 346.191 145.868 345.234 145.959C344.414 146.05 343.343 146.142 342.021 146.233C340.745 146.324 339.242 146.415 337.51 146.506C338.421 145.868 339.15 145.298 339.697 144.797C340.29 144.25 340.745 143.795 341.064 143.43C341.429 142.974 341.68 142.564 341.816 142.199C341.908 141.789 341.976 141.174 342.021 140.354C342.067 139.625 342.067 138.668 342.021 137.483C341.976 136.252 341.862 134.657 341.68 132.698L323.701 134.543C323.245 135.318 322.904 136.002 322.676 136.594C322.448 137.141 322.288 137.619 322.197 138.03C322.061 138.531 322.015 138.941 322.061 139.26C322.152 139.625 322.311 140.058 322.539 140.559C322.767 141.015 323.086 141.561 323.496 142.199C323.952 142.792 324.613 143.498 325.479 144.319C324.339 144.273 323.177 144.25 321.992 144.25C320.807 144.25 319.714 144.273 318.711 144.319C317.526 144.364 316.364 144.41 315.225 144.455C314.085 144.501 312.786 144.569 311.328 144.66C310.098 144.752 308.662 144.865 307.021 145.002C305.335 145.093 303.535 145.23 301.621 145.412C302.806 144.865 303.809 144.319 304.629 143.772C305.449 143.179 306.133 142.632 306.68 142.131C307.318 141.584 307.865 141.06 308.32 140.559C308.639 140.103 309.277 139.055 310.234 137.414C311.191 135.728 312.262 133.746 313.447 131.467C314.678 129.188 315.954 126.75 317.275 124.153C318.643 121.555 319.873 119.117 320.967 116.838C322.061 114.514 322.949 112.509 323.633 110.823C324.316 109.136 324.658 108.043 324.658 107.541C324.567 106.949 324.339 106.288 323.975 105.559C323.656 104.921 323.154 104.192 322.471 103.371C321.833 102.551 320.898 101.64 319.668 100.637ZM340.859 127.639C340.586 126.044 340.335 124.677 340.107 123.537C339.88 122.352 339.697 121.373 339.561 120.598C339.378 119.686 339.242 118.889 339.15 118.205C339.014 117.567 338.854 116.747 338.672 115.744C338.49 114.878 338.262 113.808 337.988 112.531C337.76 111.21 337.464 109.638 337.1 107.815C334.502 113.01 332.474 117.043 331.016 119.914C329.603 122.74 328.577 124.813 327.939 126.135C327.165 127.684 326.732 128.596 326.641 128.869L340.859 127.639ZM355.693 97.3557C357.015 97.5836 358.177 97.7431 359.18 97.8342C360.228 97.9254 361.094 97.9937 361.777 98.0393C362.598 98.0849 363.304 98.1077 363.896 98.1077C364.489 98.1077 365.332 98.0621 366.426 97.9709C367.337 97.8798 368.522 97.7659 369.98 97.6292C371.484 97.4924 373.33 97.2646 375.518 96.9456C374.88 97.1278 374.287 97.6519 373.74 98.5178C373.239 99.3381 372.783 100.227 372.373 101.184C371.872 102.323 371.439 103.576 371.074 104.944C370.755 106.174 370.345 107.86 369.844 110.002C369.388 112.144 368.932 114.468 368.477 116.975C368.066 119.481 367.747 122.033 367.52 124.631C367.292 127.183 367.246 129.53 367.383 131.672C367.565 133.814 367.998 135.591 368.682 137.004C369.365 138.371 370.413 139.101 371.826 139.192C373.968 139.374 375.745 139.397 377.158 139.26C378.617 139.078 379.801 138.827 380.713 138.508C381.624 138.189 382.331 137.824 382.832 137.414C383.333 136.959 383.721 136.526 383.994 136.115C384.723 135.067 385.475 133.723 386.25 132.082C387.025 130.442 387.708 128.869 388.301 127.365C388.939 125.862 389.463 124.586 389.873 123.537C390.283 122.489 390.488 121.988 390.488 122.033C390.488 122.125 390.465 122.649 390.42 123.606C390.42 124.517 390.397 125.634 390.352 126.955C390.352 128.231 390.329 129.576 390.283 130.989C390.283 132.401 390.26 133.609 390.215 134.612C390.169 135.432 390.124 136.343 390.078 137.346C390.033 138.212 389.987 139.237 389.941 140.422C389.941 141.607 389.896 142.906 389.805 144.319C387.891 144.182 386.068 144.091 384.336 144.045C382.604 144 381.077 143.977 379.756 143.977C378.206 143.977 376.771 144 375.449 144.045C374.036 144.091 372.396 144.159 370.527 144.25C368.932 144.341 366.95 144.455 364.58 144.592C362.21 144.683 359.476 144.82 356.377 145.002C356.742 144.364 357.038 143.772 357.266 143.225C357.539 142.678 357.744 142.222 357.881 141.858C358.063 141.402 358.177 141.015 358.223 140.696C358.496 139.237 358.724 137.392 358.906 135.158C359.089 132.88 359.225 130.464 359.316 127.912C359.453 125.36 359.521 122.763 359.521 120.119C359.567 117.431 359.567 114.947 359.521 112.668C359.476 110.39 359.385 108.407 359.248 106.721C359.157 105.035 359.02 103.873 358.838 103.235C358.61 102.505 358.337 101.776 358.018 101.047C357.744 100.409 357.402 99.7711 356.992 99.1331C356.628 98.4495 356.195 97.857 355.693 97.3557ZM414.004 96.3987C415.599 96.3987 417.035 96.6721 418.311 97.219C419.632 97.7203 420.84 98.29 421.934 98.928C423.073 99.566 424.144 100.158 425.146 100.705C426.149 101.207 427.174 101.457 428.223 101.457C429.043 101.412 429.977 101.298 431.025 101.115C431.937 100.933 432.985 100.66 434.17 100.295C435.4 99.885 436.768 99.2926 438.271 98.5178C436.768 99.9762 435.537 101.207 434.58 102.209C433.669 103.166 432.962 103.964 432.461 104.602C431.868 105.331 431.436 105.901 431.162 106.311C430.889 106.812 430.479 107.564 429.932 108.567C429.43 109.478 428.747 110.709 427.881 112.258C427.015 113.762 425.921 115.744 424.6 118.205C424.6 115.061 424.281 112.623 423.643 110.891C423.05 109.159 422.389 107.837 421.66 106.926C420.794 105.878 419.814 105.217 418.721 104.944C417.718 104.807 416.715 104.989 415.713 105.49C414.71 105.946 413.708 106.63 412.705 107.541C411.748 108.453 410.814 109.546 409.902 110.823C409.036 112.053 408.239 113.352 407.51 114.719C406.826 116.086 406.257 117.476 405.801 118.889C405.345 120.256 405.049 121.532 404.912 122.717C404.775 123.765 404.753 124.996 404.844 126.408C404.935 127.776 405.14 129.188 405.459 130.647C405.778 132.059 406.188 133.449 406.689 134.817C407.191 136.184 407.806 137.414 408.535 138.508C409.31 139.556 410.176 140.422 411.133 141.106C412.09 141.744 413.184 142.04 414.414 141.994C415.781 141.903 417.126 141.493 418.447 140.764C419.587 140.171 420.749 139.26 421.934 138.03C423.118 136.753 424.144 134.953 425.01 132.629L435.127 134.475C432.21 138.03 429.362 140.696 426.582 142.473C423.848 144.25 421.387 145.503 419.199 146.233C416.647 147.053 414.232 147.44 411.953 147.395C409.082 147.076 406.393 146.21 403.887 144.797C401.38 143.384 399.215 141.675 397.393 139.67C395.615 137.619 394.225 135.386 393.223 132.971C392.22 130.556 391.787 128.186 391.924 125.862C392.015 124.312 392.334 122.512 392.881 120.461C393.428 118.365 394.157 116.223 395.068 114.035C396.025 111.848 397.165 109.706 398.486 107.61C399.808 105.513 401.266 103.645 402.861 102.004C404.456 100.318 406.188 98.9736 408.057 97.9709C409.971 96.9228 411.953 96.3987 414.004 96.3987ZM445.859 100.637C448.138 100.774 450.052 100.888 451.602 100.979C453.197 101.024 454.518 101.07 455.566 101.115C456.751 101.161 457.754 101.161 458.574 101.115C459.395 101.07 460.511 100.956 461.924 100.774C463.109 100.637 464.681 100.432 466.641 100.158C468.646 99.8394 471.13 99.4293 474.092 98.928C473.044 99.9762 472.223 100.933 471.631 101.799C471.084 102.619 470.651 103.326 470.332 103.918C469.967 104.647 469.717 105.263 469.58 105.764C469.489 106.22 469.58 107.359 469.854 109.182C470.127 111.005 470.514 113.17 471.016 115.676C471.517 118.137 472.064 120.78 472.656 123.606C473.249 126.386 473.841 129.006 474.434 131.467C475.026 133.882 475.55 135.956 476.006 137.688C476.507 139.374 476.872 140.377 477.1 140.696C477.783 141.653 478.216 142.291 478.398 142.61C478.581 142.883 478.9 143.134 479.355 143.362C479.538 143.453 479.834 143.589 480.244 143.772C480.609 143.954 481.087 144.182 481.68 144.455C482.318 144.729 483.115 145.048 484.072 145.412C482.295 145.503 480.768 145.572 479.492 145.617C478.216 145.617 477.168 145.64 476.348 145.686C475.391 145.731 474.57 145.777 473.887 145.823C473.203 145.823 472.383 145.868 471.426 145.959C470.605 146.05 469.535 146.142 468.213 146.233C466.937 146.324 465.433 146.415 463.701 146.506C464.613 145.868 465.342 145.298 465.889 144.797C466.481 144.25 466.937 143.795 467.256 143.43C467.62 142.974 467.871 142.564 468.008 142.199C468.099 141.789 468.167 141.174 468.213 140.354C468.258 139.625 468.258 138.668 468.213 137.483C468.167 136.252 468.053 134.657 467.871 132.698L449.893 134.543C449.437 135.318 449.095 136.002 448.867 136.594C448.639 137.141 448.48 137.619 448.389 138.03C448.252 138.531 448.206 138.941 448.252 139.26C448.343 139.625 448.503 140.058 448.73 140.559C448.958 141.015 449.277 141.561 449.688 142.199C450.143 142.792 450.804 143.498 451.67 144.319C450.531 144.273 449.368 144.25 448.184 144.25C446.999 144.25 445.905 144.273 444.902 144.319C443.717 144.364 442.555 144.41 441.416 144.455C440.277 144.501 438.978 144.569 437.52 144.66C436.289 144.752 434.854 144.865 433.213 145.002C431.527 145.093 429.727 145.23 427.812 145.412C428.997 144.865 430 144.319 430.82 143.772C431.641 143.179 432.324 142.632 432.871 142.131C433.509 141.584 434.056 141.06 434.512 140.559C434.831 140.103 435.469 139.055 436.426 137.414C437.383 135.728 438.454 133.746 439.639 131.467C440.869 129.188 442.145 126.75 443.467 124.153C444.834 121.555 446.064 119.117 447.158 116.838C448.252 114.514 449.141 112.509 449.824 110.823C450.508 109.136 450.85 108.043 450.85 107.541C450.758 106.949 450.531 106.288 450.166 105.559C449.847 104.921 449.346 104.192 448.662 103.371C448.024 102.551 447.09 101.64 445.859 100.637ZM467.051 127.639C466.777 126.044 466.527 124.677 466.299 123.537C466.071 122.352 465.889 121.373 465.752 120.598C465.57 119.686 465.433 118.889 465.342 118.205C465.205 117.567 465.046 116.747 464.863 115.744C464.681 114.878 464.453 113.808 464.18 112.531C463.952 111.21 463.656 109.638 463.291 107.815C460.693 113.01 458.665 117.043 457.207 119.914C455.794 122.74 454.769 124.813 454.131 126.135C453.356 127.684 452.923 128.596 452.832 128.869L467.051 127.639ZM478.057 97.0139C479.515 97.2418 480.837 97.4469 482.021 97.6292C483.206 97.7659 484.232 97.8798 485.098 97.9709C486.1 98.1077 486.989 98.2216 487.764 98.3127C488.721 98.4495 490.156 98.29 492.07 97.8342C493.984 97.3329 496.081 96.8772 498.359 96.467C500.684 96.0113 503.053 95.7607 505.469 95.7151C507.884 95.6239 510.094 96.0569 512.1 97.0139C514.105 97.9709 515.745 98.928 517.021 99.885C518.298 100.842 519.3 101.867 520.029 102.961C520.804 104.009 521.351 105.126 521.67 106.311C521.989 107.496 522.171 108.795 522.217 110.207C522.171 112.304 521.67 114.332 520.713 116.291C520.303 117.112 519.756 117.977 519.072 118.889C518.434 119.755 517.637 120.598 516.68 121.418C515.723 122.239 514.583 123.013 513.262 123.742C511.986 124.472 510.482 125.11 508.75 125.656C510.436 126.158 511.826 126.75 512.92 127.434C514.059 128.117 514.971 128.755 515.654 129.348C516.475 130.077 517.09 130.783 517.5 131.467C518.001 132.424 518.343 133.244 518.525 133.928C518.708 134.612 518.822 135.272 518.867 135.91C518.958 136.503 519.072 137.118 519.209 137.756C519.346 138.394 519.642 139.123 520.098 139.944C520.462 140.582 520.895 141.242 521.396 141.926C521.852 142.518 522.376 143.156 522.969 143.84C523.607 144.524 524.382 145.184 525.293 145.823C524.017 145.868 522.832 145.891 521.738 145.891C520.69 145.891 519.779 145.891 519.004 145.891C518.092 145.891 517.227 145.868 516.406 145.823C515.586 145.777 514.561 145.754 513.33 145.754C512.282 145.754 510.938 145.754 509.297 145.754C507.702 145.754 505.765 145.777 503.486 145.823C504.489 145.048 505.309 144.273 505.947 143.498C506.585 142.724 507.087 142.017 507.451 141.379C507.861 140.65 508.158 139.944 508.34 139.26C508.568 138.03 508.59 136.753 508.408 135.432C508.271 134.293 507.907 133.039 507.314 131.672C506.722 130.259 505.765 128.847 504.443 127.434C503.122 127.662 502.005 127.844 501.094 127.981C500.228 128.072 499.476 128.163 498.838 128.254C498.109 128.345 497.516 128.414 497.061 128.459C496.65 128.505 496.195 128.55 495.693 128.596C495.283 128.642 494.827 128.71 494.326 128.801C493.87 128.847 493.438 128.915 493.027 129.006C492.936 130.966 492.936 132.675 493.027 134.133C493.118 135.546 493.232 136.731 493.369 137.688C493.551 138.827 493.757 139.807 493.984 140.627C494.212 141.448 494.531 142.245 494.941 143.02C495.26 143.658 495.671 144.341 496.172 145.071C496.673 145.754 497.243 146.324 497.881 146.78C496.696 146.78 495.557 146.78 494.463 146.78C493.415 146.78 492.458 146.757 491.592 146.711C490.589 146.711 489.632 146.688 488.721 146.643C487.809 146.597 486.784 146.574 485.645 146.574C484.688 146.574 483.548 146.574 482.227 146.574C480.951 146.574 479.561 146.597 478.057 146.643C479.242 145.412 480.176 144.364 480.859 143.498C481.543 142.632 482.067 141.903 482.432 141.311C482.842 140.673 483.092 140.126 483.184 139.67C483.275 138.941 483.343 137.642 483.389 135.774C483.48 133.86 483.548 131.672 483.594 129.211C483.639 126.75 483.662 124.175 483.662 121.487C483.662 118.798 483.639 116.291 483.594 113.967C483.548 111.597 483.503 109.569 483.457 107.883C483.411 106.197 483.366 105.126 483.32 104.67C483.184 103.85 482.887 103.03 482.432 102.209C482.067 101.48 481.543 100.66 480.859 99.7483C480.176 98.8368 479.242 97.9254 478.057 97.0139ZM503.896 121.076C504.352 120.803 504.74 120.53 505.059 120.256C505.378 119.983 505.651 119.55 505.879 118.957C506.107 118.319 506.289 117.431 506.426 116.291C506.608 115.152 506.813 113.602 507.041 111.643C507.223 109.683 507.087 108.065 506.631 106.789C506.221 105.513 505.651 104.511 504.922 103.781C504.238 103.007 503.464 102.483 502.598 102.209C501.777 101.89 501.048 101.731 500.41 101.731C499.134 101.731 497.881 102.118 496.65 102.893C495.42 103.668 494.486 104.716 493.848 106.037C493.62 106.63 493.415 107.61 493.232 108.977C493.096 110.162 493.005 111.802 492.959 113.899C492.913 115.995 492.982 118.752 493.164 122.17C494.896 122.444 496.423 122.558 497.744 122.512C499.066 122.421 500.182 122.261 501.094 122.033C502.188 121.806 503.122 121.487 503.896 121.076ZM521.123 100.227C524.313 100.318 526.956 100.386 529.053 100.432C531.195 100.432 532.926 100.432 534.248 100.432H537.871H558.242C558.333 101.343 558.402 102.232 558.447 103.098C558.538 103.918 558.584 104.647 558.584 105.285C558.584 106.06 558.561 106.767 558.516 107.405C558.47 108.043 558.402 108.726 558.311 109.455C558.219 110.093 558.128 110.777 558.037 111.506C557.946 112.235 557.786 112.987 557.559 113.762C556.921 111.301 556.055 109.433 554.961 108.156C553.913 106.88 552.842 105.946 551.748 105.354C550.472 104.67 549.128 104.306 547.715 104.26C545.846 104.351 544.388 104.511 543.34 104.739C542.292 104.966 541.471 105.285 540.879 105.696C540.286 106.106 539.831 106.584 539.512 107.131C539.238 107.632 538.942 108.202 538.623 108.84C538.35 109.387 538.099 110.23 537.871 111.369C537.643 112.326 537.415 113.625 537.188 115.266C537.005 116.906 536.8 119.026 536.572 121.623C537.803 121.259 538.783 120.917 539.512 120.598C540.286 120.279 540.902 120.005 541.357 119.778C541.859 119.504 542.223 119.253 542.451 119.026C542.633 118.752 542.907 118.251 543.271 117.522C543.545 116.884 543.91 116.018 544.365 114.924C544.867 113.83 545.459 112.326 546.143 110.412C546.234 112.509 546.279 114.263 546.279 115.676C546.279 117.043 546.302 118.16 546.348 119.026C546.348 120.028 546.37 120.826 546.416 121.418V124.016C546.416 124.973 546.416 126.272 546.416 127.912C546.462 129.507 546.53 131.535 546.621 133.996C546.074 132.31 545.573 130.989 545.117 130.031C544.707 129.029 544.342 128.277 544.023 127.776C543.659 127.183 543.34 126.773 543.066 126.545C542.747 126.454 542.314 126.363 541.768 126.272C541.266 126.226 540.628 126.203 539.854 126.203C539.124 126.203 538.19 126.317 537.051 126.545C536.914 129.052 536.891 131.08 536.982 132.629C537.119 134.133 537.301 135.295 537.529 136.115C537.757 137.073 538.031 137.756 538.35 138.166C538.76 138.576 539.58 138.918 540.811 139.192C542.041 139.42 543.431 139.511 544.98 139.465C546.576 139.374 548.193 139.101 549.834 138.645C551.475 138.189 552.933 137.437 554.209 136.389C555.166 135.523 556.191 134.429 557.285 133.108C558.197 131.968 559.199 130.533 560.293 128.801C561.432 127.069 562.549 124.973 563.643 122.512C563.46 124.563 563.324 126.272 563.232 127.639C563.187 128.961 563.118 130.031 563.027 130.852C562.936 131.809 562.868 132.538 562.822 133.039C562.822 133.586 562.754 134.361 562.617 135.364C562.526 136.229 562.367 137.414 562.139 138.918C561.956 140.377 561.706 142.245 561.387 144.524C559.245 144.569 557.217 144.615 555.303 144.66C553.389 144.66 551.702 144.683 550.244 144.729C548.512 144.774 546.917 144.82 545.459 144.865C543.955 144.865 542.292 144.934 540.469 145.071C538.874 145.162 536.982 145.298 534.795 145.481C532.653 145.663 530.283 145.914 527.686 146.233C527.913 143.134 528.073 140.217 528.164 137.483C528.301 134.703 528.392 132.265 528.438 130.168C528.483 127.707 528.483 125.429 528.438 123.332C528.665 118.091 528.574 113.853 528.164 110.617C527.754 107.382 527.275 105.308 526.729 104.397C526.455 104.078 526.068 103.69 525.566 103.235C525.156 102.87 524.587 102.437 523.857 101.936C523.128 101.434 522.217 100.865 521.123 100.227Z" fill="#2BE21B"/>
<path fill-rule="evenodd" clip-rule="evenodd" d="M24.5191 77.9985C31.7801 84.2891 39.3715 86.2 50.2607 84.1279C55.9792 83.0389 60.5597 81.3452 64.5618 79.1681C72.5416 74.8274 78.2238 68.5658 86.0551 61.361L96.4519 53.1051C109.334 44.307 126.564 38.5804 139.617 51.3073C145.753 57.291 149.119 66.8078 149.813 78.7155C148.074 98.5802 144.54 111.161 137.544 125.809C133.652 133.955 105.732 188.784 89.8092 184.699C81.2953 182.515 83.2751 156.944 74.735 149.982C83.6109 153.555 81.5071 170.898 91.0738 171.429C103.024 172.092 113.055 149.041 116.719 140.099C119.39 133.584 121.6 126.951 123.502 120.678C129.185 101.942 133.259 79.1627 120.976 69.6539C109.632 60.873 98.0469 69.8739 89.0433 77.4137C79.3843 85.5012 65.9704 97.1436 53.1177 98.9577C41.1703 100.644 30.7346 96.6774 21.75 89.6517C21.9084 85.5528 22.6598 81.4321 24.5191 77.9985Z" fill="#2BE21B"/>
<path fill-rule="evenodd" clip-rule="evenodd" d="M74.734 149.982C64.9148 152.374 67.703 171.387 56.7069 171.56C47.4535 171.705 37.9538 156.044 30.7028 137.878C24.5408 122.442 11.4935 88.3563 24.1787 73.3862C31.217 65.0797 39.4529 64.4732 47.6246 66.7164C52.9556 68.1793 59.0397 71.3114 65.6001 75.2067C65.9821 74.9659 66.3596 74.7188 66.7334 74.4671C70.3001 72.0628 73.5192 69.1814 76.6522 66.2438C64.7953 58.7629 53.831 51.4404 45.0826 47.7967C32.0036 42.3499 17.8202 40.8562 7.64652 52.7276C-11.3814 74.9315 9.85949 119.821 20.0327 140.785C31.0902 163.571 45.2963 185.647 57.623 184.784C68.6399 184.014 64.4785 156.402 74.734 149.982ZM83.0333 86.1385C108.11 102.029 136.226 118 155.73 95.5422C169.741 79.4088 158.629 52.1926 138.606 49.0713C154.551 54.6359 161.093 80.7332 142.865 87.2528C128.407 92.4227 111.139 86.0316 94.3371 76.8126C94.0321 77.0543 93.7288 77.2969 93.4283 77.5395C92.5773 78.2275 91.7355 78.9264 90.8972 79.6288C88.2874 81.8141 85.6884 84.0084 83.0333 86.1385Z" fill="#0DBBB4"/>
<path fill-rule="evenodd" clip-rule="evenodd" d="M40.8086 119.009C61.9153 127.431 88.6889 129.682 111.752 116.868C92.0682 142.109 62.329 150.646 40.8086 119.009Z" fill="#0DBBB4"/>
<path fill-rule="evenodd" clip-rule="evenodd" d="M39.509 126.195C35.8292 120.063 33.7154 111.53 45.0138 113.734C38.9351 116.54 38.5576 120.045 39.509 126.195Z" fill="#0DBBB4"/>
<path fill-rule="evenodd" clip-rule="evenodd" d="M33.5849 0.000190735C44.2242 0.000190735 52.8494 8.62538 52.8494 19.2647C52.8494 29.9041 44.2242 38.5293 33.5849 38.5293C22.9455 38.5293 14.3203 29.9041 14.3203 19.2647C14.3203 8.62538 22.9455 0.000190735 33.5849 0.000190735Z" fill="#0DBBB4"/>
<path fill-rule="evenodd" clip-rule="evenodd" d="M114.01 2.21662C124.1 2.21662 132.28 10.3973 132.28 20.4872C132.28 30.578 124.1 38.7578 114.01 38.7578C103.919 38.7578 95.7383 30.578 95.7383 20.4872C95.7383 10.3973 103.919 2.21662 114.01 2.21662Z" fill="#2BE21B"/>
<path fill-rule="evenodd" clip-rule="evenodd" d="M75.7458 27.1391C83.1345 27.1391 89.1245 33.1282 89.1245 40.5169C89.1245 47.9055 83.1345 53.8955 75.7458 53.8955C68.3572 53.8955 62.3672 47.9055 62.3672 40.5169C62.3672 33.1282 68.3572 27.1391 75.7458 27.1391Z" fill="#2BE21B"/>
</svg>
