<svg width="32" height="22" viewBox="0 0 32 22" fill="none" xmlns="http://www.w3.org/2000/svg">
<path d="M26.35 22C25.35 22 24.5833 21.5753 24.05 20.726C23.5167 19.8753 23.4833 19 23.95 18.1L26 14H22C20.9 14 19.9587 13.608 19.176 12.824C18.392 12.0413 18 11.1 18 10V4C18 2.9 18.392 1.95867 19.176 1.176C19.9587 0.392 20.9 0 22 0H28C29.1 0 30.042 0.392 30.826 1.176C31.6087 1.95867 32 2.9 32 4V13.05C32 13.35 31.9747 13.6587 31.924 13.976C31.8747 14.292 31.7667 14.5833 31.6 14.85L28.75 20.5C28.5167 20.9667 28.1833 21.3333 27.75 21.6C27.3167 21.8667 26.85 22 26.35 22ZM8.35 22C7.35 22 6.58333 21.5753 6.05 20.726C5.51667 19.8753 5.48333 19 5.95 18.1L8 14H4C2.9 14 1.95867 13.608 1.176 12.824C0.392 12.0413 0 11.1 0 10V4C0 2.9 0.392 1.95867 1.176 1.176C1.95867 0.392 2.9 0 4 0H10C11.1 0 12.042 0.392 12.826 1.176C13.6087 1.95867 14 2.9 14 4V13.05C14 13.35 13.9753 13.6587 13.926 13.976C13.8753 14.292 13.7667 14.5833 13.6 14.85L10.75 20.5C10.5167 20.9667 10.1833 21.3333 9.75 21.6C9.31667 21.8667 8.85 22 8.35 22Z" fill="url(#paint0_linear_34_667)"/>
<defs>
<linearGradient id="paint0_linear_34_667" x1="16" y1="0" x2="16" y2="22" gradientUnits="userSpaceOnUse">
<stop stop-color="#0DBBB4"/>
<stop offset="1" stop-color="#30B832" stop-opacity="0.44"/>
</linearGradient>
</defs>
</svg>
